<svg xmlns="http://www.w3.org/2000/svg" viewBox="0 0 500 500"><g id="freepik--background-complete--inject-264"><path d="M88.8,479.21c-.14,0-.26-88.86-.26-198.44s.12-198.46,.26-198.46,.26,88.84,.26,198.46-.12,198.44-.26,198.44Z" style="fill:#e0e0e0;"></path><path d="M66.96,479.21c-.14,0-.26-88.86-.26-198.44s.12-198.46,.26-198.46,.26,88.84,.26,198.46-.12,198.44-.26,198.44Z" style="fill:#e0e0e0;"></path><path d="M405.8,479.21c-.14,0-.26-88.86-.26-198.44s.12-198.46,.26-198.46,.26,88.84,.26,198.46-.12,198.44-.26,198.44Z" style="fill:#e0e0e0;"></path><path d="M419.9,479.21c-.14,0-.26-88.86-.26-198.44s.12-198.46,.26-198.46,.26,88.84,.26,198.46-.12,198.44-.26,198.44Z" style="fill:#e0e0e0;"></path><path d="M480.1,83.06c0,.14-103.2,.26-230.48,.26s-230.5-.12-230.5-.26,103.18-.26,230.5-.26,230.48,.12,230.48,.26Z" style="fill:#e0e0e0;"></path><path d="M480.1,15.02c0,.14-103.2,.26-230.48,.26s-230.5-.12-230.5-.26,103.18-.26,230.5-.26,230.48,.12,230.48,.26Z" style="fill:#e0e0e0;"></path><rect x="221.64" y="45.89" width="56.73" height="6.31" style="fill:#e0e0e0;"></rect><rect x="30.8" y="45.89" width="41.29" height="6.31" style="fill:#e0e0e0;"></rect><rect x="434.06" y="45.89" width="41.29" height="6.31" style="fill:#e0e0e0;"></rect><path d="M285.42,277s.5-.04,1.47-.1c.49-.03,1.09-.06,1.81-.1,.36-.02,.75-.03,1.16-.07,.41-.07,.85-.13,1.32-.21,3.73-.47,9.34-1.71,15.55-5.39,.77-.47,1.56-.95,2.37-1.44,.76-.57,1.54-1.15,2.34-1.75,.82-.57,1.57-1.27,2.34-1.98,.76-.72,1.6-1.39,2.31-2.23,3.06-3.13,5.81-7.09,7.91-11.74,2.1-4.64,3.5-10.02,3.72-15.81,.1-1.44,.09-2.92,.08-4.41,0-1.49,0-3.01,0-4.54,0-3.07,0-6.21,0-9.44,0-12.9-.02-27.02-.03-42.19,0-7.58,0-15.42-.01-23.5,0-4.04,0-8.14,0-12.29-.1-4.13-.62-8.31-1.84-12.38-1.29-4.04-3.14-7.94-5.56-11.55-2.46-3.58-5.53-6.78-9.02-9.52-.9-.64-1.75-1.37-2.7-1.95-.95-.58-1.91-1.16-2.87-1.74-2-1-4.01-2.03-6.17-2.73l-1.6-.58-1.65-.42c-1.11-.25-2.19-.64-3.33-.76-1.13-.17-2.26-.36-3.4-.5-1.15-.06-2.3-.12-3.45-.17-18.55-.01-37.76-.02-57.44-.03-9.79,.06-19.38,3.5-26.76,9.54-7.34,6.08-12.53,14.48-14.5,23.5-1.01,4.51-1.1,9.1-1.05,13.66,0,4.55,0,9.06,0,13.53,0,8.93,0,17.67,0,26.19,0,17.05-.02,33.26-.02,48.42-.04,1.9,.08,3.77,.17,5.62,0,.93,.21,1.84,.33,2.75,.16,.9,.24,1.82,.45,2.7,.49,1.75,.8,3.54,1.5,5.19,.31,.84,.6,1.68,.93,2.5,.38,.8,.76,1.59,1.14,2.38,3.07,6.32,7.75,11.42,12.9,15.22,5.18,3.8,10.94,6.25,16.62,7.35,5.69,1.2,11.21,.74,16.33,.84,10.24,.02,19.07,.03,26.28,.04,7.21,.02,12.8,.04,16.61,.05,1.89,.01,3.34,.02,4.32,.03,.97,0,1.47,.03,1.47,.03,0,0-.5,.02-1.47,.03-.98,0-2.43,.01-4.32,.03-3.81,.01-9.4,.03-16.61,.05-7.21,.01-16.04,.03-26.28,.04-5.1-.09-10.64,.38-16.39-.81-5.73-1.09-11.55-3.55-16.77-7.38-5.2-3.82-9.93-8.96-13.04-15.34-.38-.8-.77-1.6-1.16-2.4-.33-.83-.62-1.68-.94-2.52-.7-1.67-1.03-3.47-1.52-5.24-.22-.89-.3-1.82-.46-2.73-.12-.92-.33-1.83-.34-2.77-.1-1.87-.22-3.76-.18-5.65,0-15.17-.02-31.37-.02-48.42,0-8.53,0-17.27,0-26.19,0-4.46,0-8.97,0-13.53-.06-4.54,.04-9.21,1.05-13.77,1.99-9.13,7.25-17.64,14.67-23.79,7.47-6.12,17.18-9.61,27.09-9.66,19.68,.01,38.89,.03,57.44,.04,1.16,.06,2.33,.12,3.49,.18,1.15,.15,2.29,.34,3.44,.51,1.15,.12,2.25,.51,3.37,.77l1.67,.43,1.62,.59c2.18,.71,4.22,1.75,6.24,2.76,.97,.59,1.94,1.18,2.9,1.76,.96,.59,1.82,1.33,2.73,1.98,3.52,2.77,6.63,6.01,9.11,9.64,2.45,3.65,4.32,7.6,5.62,11.69,1.23,4.12,1.76,8.34,1.85,12.52,0,4.15,0,8.25,0,12.29,0,8.08,0,15.92-.01,23.5-.01,15.16-.02,29.29-.03,42.19,0,3.22,0,6.37,0,9.44,0,1.53,0,3.05,0,4.54,0,1.49,.01,2.97-.09,4.42-.23,5.83-1.65,11.24-3.78,15.91-2.13,4.68-4.91,8.66-8,11.79-.71,.85-1.56,1.51-2.33,2.24-.78,.71-1.53,1.41-2.36,1.98-.81,.6-1.59,1.18-2.36,1.75-.82,.49-1.61,.97-2.38,1.44-6.26,3.67-11.9,4.88-15.64,5.32l-1.33,.2c-.42,.04-.81,.04-1.17,.06-.72,.03-1.32,.06-1.81,.08-.97,.04-1.47,.05-1.47,.05Z" style="fill:#e0e0e0;"></path><path d="M146.19,15.02c.14,0,.26,15.29,.26,34.16s-.12,34.16-.26,34.16-.26-15.29-.26-34.16,.12-34.16,.26-34.16Z" style="fill:#e0e0e0;"></path><path d="M353.81,15.02c.14,0,.26,15.29,.26,34.16s-.12,34.16-.26,34.16-.26-15.29-.26-34.16,.12-34.16,.26-34.16Z" style="fill:#e0e0e0;"></path></g><g id="freepik--Floor--inject-264"><path d="M476.52,480.1c0,.14-101.42,.26-226.51,.26s-226.53-.12-226.53-.26,101.4-.26,226.53-.26,226.51,.12,226.51,.26Z" style="fill:#263238;"></path></g><g id="freepik--Window--inject-264"><g><path d="M272.83,117.04h-32.08c-16.45,0-29.78,13.52-29.78,30.19v9.59h91.65v-9.59c0-16.67-13.33-30.19-29.78-30.19Z" style="fill:#ebebeb;"></path><path d="M301.74,156.82c0,.14-20.13,.26-44.95,.26s-44.95-.12-44.95-.26,20.12-.26,44.95-.26,44.95,.12,44.95,.26Z" style="fill:#263238;"></path><path d="M268.04,148.92s.2-.02,.54-.14c.33-.12,.83-.43,1.07-1.07,.17-.6,.23-1.63-.51-2.24-.36-.32-.84-.44-1.41-.4-.57,0-1.18,.01-1.81,.02-5.14,.02-12.13,.05-19.84,.08-.85-.02-1.59,.74-1.57,1.56-.02,.5,.02,.85,.25,1.21,.21,.34,.56,.59,.94,.68,.36,.09,.85,.04,1.29,.05,.45,0,.89,0,1.33,0,.88,0,1.74,0,2.58,0,3.34,.02,6.36,.04,8.92,.06,2.48,.03,4.52,.06,6.01,.08,.66,.02,1.2,.04,1.63,.05,.37,.02,.57,.03,.57,.05s-.2,.04-.57,.05c-.43,.01-.97,.03-1.63,.05-1.49,.02-3.53,.05-6.01,.08-2.56,.02-5.58,.04-8.92,.06-.84,0-1.7,0-2.58,0-.44,0-.88,0-1.33,0-.45-.02-.88,.05-1.42-.06-.51-.12-.96-.45-1.25-.9-.31-.43-.36-1.05-.33-1.49-.03-1.1,.96-2.11,2.09-2.08,7.72,.03,14.7,.06,19.84,.08,.63,0,1.24,.01,1.81,.02,.57-.04,1.21,.13,1.6,.51,.41,.36,.62,.86,.65,1.32,0,.44,.01,.86-.14,1.21-.3,.71-.87,1.01-1.23,1.1-.38,.09-.58,.04-.58,.04Z" style="fill:#263238;"></path><g><path d="M272.7,249.91s.35-.04,1.02-.08c.34-.02,.76-.05,1.26-.08,.25-.02,.52-.03,.81-.05l.92-.15c.65-.11,1.38-.21,2.18-.36,.79-.21,1.65-.43,2.58-.68,.92-.3,1.88-.69,2.92-1.06,.99-.51,2.09-.95,3.16-1.6,2.19-1.23,4.41-2.94,6.57-5.07,2.13-2.17,4.09-4.89,5.63-8.09,1.53-3.2,2.59-6.91,2.86-10.93,.14-2,.09-4.09,.09-6.23,0-2.14,0-4.33,0-6.57,0-8.98-.02-18.82-.03-29.39,0-5.28,0-10.74-.01-16.37,0-2.81,0-5.67,0-8.56,0-1.45,0-2.9,0-4.37-.01-1.46,.04-2.95-.07-4.41-.06-.73-.02-1.48-.17-2.21-.11-.73-.22-1.47-.34-2.2-.14-.73-.36-1.45-.53-2.18-.1-.36-.17-.73-.29-1.09l-.39-1.06c-.46-1.44-1.17-2.79-1.83-4.16-.79-1.3-1.55-2.64-2.53-3.84-1.88-2.43-4.1-4.68-6.71-6.45-2.59-1.78-5.48-3.18-8.54-4.12-3.07-.97-6.31-1.23-9.58-1.26-3.29,0-6.6,0-9.94,0-6.67,0-13.45,0-20.3,0-6.79,.06-13.49,2.35-18.64,6.53-5.14,4.15-8.91,9.9-10.38,16.14l-.3,1.16c-.07,.39-.12,.79-.19,1.18-.1,.79-.29,1.57-.31,2.37-.04,.79-.08,1.58-.12,2.37,0,.8,0,1.59,0,2.38,0,3.17,0,6.31,0,9.42,0,6.22,0,12.31,0,18.25,0,11.88-.02,23.17-.02,33.73,0,2.64,0,5.24,0,7.79-.03,1.28,.09,2.52,.13,3.77,.02,.62,.16,1.23,.24,1.84,.11,.61,.15,1.22,.3,1.81,1.05,4.76,3.19,9.05,5.98,12.53,2.79,3.49,6.26,6.12,9.84,7.94,3.59,1.82,7.33,2.79,10.86,3.12,.89,.05,1.76,.09,2.61,.14,.86,0,1.71,0,2.54,0,1.66,0,3.25,0,4.78,.01,3.06,0,5.85,.02,8.36,.02,5.02,.02,8.91,.04,11.57,.05,1.31,.01,2.32,.02,3.01,.03,.68,0,1.02,.03,1.02,.03,0,0-.35,.02-1.02,.03-.69,0-1.69,.01-3.01,.03-2.66,.01-6.55,.03-11.57,.05-2.51,0-5.31,.01-8.36,.02-1.53,0-3.12,0-4.78,.01-.83,0-1.67,0-2.54,0-.86-.04-1.74-.08-2.64-.13-3.57-.32-7.35-1.28-10.98-3.11-3.62-1.83-7.14-4.48-9.97-8-2.83-3.52-5.01-7.85-6.09-12.68-.15-.6-.2-1.22-.31-1.83-.08-.62-.23-1.23-.25-1.86-.05-1.26-.17-2.53-.14-3.8,0-2.55,0-5.14,0-7.79,0-10.57-.02-21.85-.02-33.73,0-5.94,0-12.03,0-18.25,0-3.11,0-6.25,0-9.42v-2.39c.05-.8,.09-1.61,.13-2.41,.02-.81,.21-1.6,.31-2.41,.06-.4,.12-.8,.19-1.2l.3-1.18c1.49-6.36,5.32-12.21,10.55-16.43,5.24-4.25,12.06-6.59,18.97-6.65,6.85,0,13.63,0,20.3,0,3.34,0,6.65,0,9.94,0,3.29,.02,6.61,.3,9.73,1.28,3.12,.96,6.05,2.39,8.68,4.2,2.65,1.8,4.9,4.09,6.81,6.56,.99,1.22,1.76,2.58,2.56,3.9,.67,1.4,1.39,2.77,1.85,4.23l.39,1.08c.12,.36,.2,.74,.3,1.1,.18,.74,.4,1.47,.54,2.21,.11,.75,.23,1.5,.34,2.24,.14,.74,.1,1.5,.17,2.24,.11,1.5,.06,2.97,.07,4.44,0,1.47,0,2.92,0,4.37,0,2.89,0,5.75,0,8.56,0,5.63,0,11.09-.01,16.37-.01,10.56-.02,20.4-.03,29.39,0,2.25,0,4.44,0,6.57-.01,2.14,.04,4.21-.11,6.25-.28,4.06-1.37,7.81-2.93,11.03-1.57,3.22-3.55,5.96-5.72,8.14-2.2,2.14-4.44,3.85-6.65,5.08-1.08,.65-2.19,1.09-3.19,1.59-1.05,.37-2.03,.75-2.95,1.05-.94,.24-1.81,.46-2.6,.66-.8,.14-1.54,.23-2.2,.34-.33,.05-.64,.09-.92,.13-.29,.01-.56,.02-.81,.04-.5,.02-.92,.04-1.26,.05-.68,.03-1.02,.03-1.02,.03Z" style="fill:#263238;"></path><path d="M241.42,250.3l-2.65-.13c-3.9-.35-7.63-1.4-11.08-3.14-3.92-1.98-7.4-4.77-10.06-8.07-2.98-3.7-5.1-8.12-6.14-12.78-.1-.39-.16-.8-.22-1.2-.03-.21-.06-.43-.1-.64-.03-.23-.06-.44-.1-.65-.07-.4-.14-.82-.15-1.24-.02-.4-.04-.8-.06-1.2-.05-.85-.1-1.74-.08-2.61l-.04-69.18v-2.39l.13-2.42c.01-.53,.1-1.07,.19-1.58,.05-.28,.09-.56,.13-.84l.07-.43c.04-.26,.08-.52,.13-.79l.31-1.2c1.49-6.34,5.27-12.23,10.64-16.56,5.25-4.26,12.04-6.64,19.12-6.7h30.24c3.98,.03,7.09,.44,9.8,1.3,3.12,.96,6.06,2.38,8.75,4.23,2.45,1.66,4.76,3.89,6.87,6.61,.84,1.04,1.54,2.2,2.21,3.31l.37,.62,.37,.76c.55,1.13,1.12,2.3,1.51,3.52l.39,1.07c.08,.24,.15,.49,.21,.74,.03,.13,.06,.26,.1,.39,.06,.27,.13,.53,.2,.79,.12,.47,.25,.96,.34,1.44l.34,2.25c.1,.49,.11,.99,.13,1.48,0,.26,.02,.52,.04,.78,.08,1.08,.07,2.16,.07,3.2,0,.42,0,.84,0,1.26l-.06,65.27c0,.52,0,1.03,0,1.54,0,1.63,0,3.18-.11,4.73-.26,3.83-1.28,7.67-2.95,11.12-1.51,3.11-3.45,5.87-5.76,8.2-2.21,2.16-4.47,3.88-6.71,5.12-.72,.43-1.44,.77-2.15,1.09-.36,.17-.71,.33-1.05,.5-.4,.14-.76,.27-1.11,.4-.65,.24-1.27,.47-1.88,.66l-2.62,.66c-.55,.1-1.06,.17-1.53,.24-.24,.03-.47,.07-.69,.1l-1.22,.15-1.81,.07c-.63,.02-.98,.02-1.03,.02-.05,0-.4,.02-1.03,.03l-5.86,.04-24.4,.08Zm30.26-132.75h-30.24c-6.85,.06-13.41,2.36-18.49,6.48-5.2,4.19-8.85,9.88-10.3,16.01l-.3,1.17c-.04,.23-.08,.49-.12,.74l-.06,.42c-.03,.28-.08,.56-.13,.84-.09,.51-.17,1-.18,1.49l-.12,2.38v11.79l-.05,59.76c-.02,.86,.03,1.72,.07,2.54,.02,.41,.04,.81,.06,1.21,0,.39,.07,.78,.14,1.16,.04,.22,.07,.44,.1,.66,.04,.21,.07,.42,.1,.64,.06,.4,.11,.77,.2,1.14,1,4.53,3.05,8.83,5.93,12.43,2.57,3.22,5.94,5.94,9.76,7.87,3.35,1.7,6.98,2.74,10.77,3.09l2.6,.14,30.24,.11c.59,0,.94,.02,1.02,.03,.08,0,.42-.04,1.01-.08l2.31-.16,.66-.11c.23-.04,.48-.08,.73-.12,.45-.07,.93-.14,1.44-.24l2.57-.67c.57-.19,1.17-.41,1.79-.65,.36-.14,.73-.27,1.11-.41,.31-.16,.67-.33,1.04-.5,.68-.32,1.39-.65,2.08-1.07,2.18-1.22,4.37-2.92,6.53-5.04,2.24-2.28,4.12-4.98,5.58-8.02,1.61-3.36,2.59-7.11,2.83-10.83,.11-1.51,.1-3.05,.1-4.68,0-.51,0-1.02,0-1.54l-.06-65.26c0-.42,0-.84,0-1.26,0-1.03,0-2.1-.07-3.13-.02-.26-.03-.53-.04-.79-.02-.48-.03-.94-.12-1.39l-.34-2.21c-.08-.46-.21-.93-.33-1.38-.07-.26-.14-.52-.2-.78-.03-.12-.07-.25-.1-.38-.06-.23-.11-.46-.19-.68l-.39-1.06c-.38-1.17-.92-2.3-1.46-3.39l-.36-.75-.37-.6c-.65-1.08-1.32-2.19-2.13-3.19-2.05-2.65-4.29-4.8-6.65-6.4-2.61-1.79-5.46-3.17-8.47-4.09-2.65-.83-5.58-1.22-9.51-1.25Zm-30.24-.52c-6.96,.06-13.64,2.4-18.81,6.59-5.28,4.26-9,10.05-10.47,16.29l-.3,1.19c-.04,.24-.08,.5-.12,.75l-.06,.43c-.03,.28-.08,.57-.13,.85-.09,.52-.17,1.02-.18,1.52l-.12,2.42v8.42l.03-8.84,.1-1.97c.01-.52,.1-1.05,.18-1.56,.05-.27,.09-.55,.13-.83l.06-.43c.04-.26,.08-.52,.12-.77l.3-1.18c1.47-6.23,5.18-12.01,10.47-16.28,5.16-4.18,11.84-6.52,18.8-6.58h30.24c3.98,.03,6.96,.42,9.66,1.27,3.06,.94,5.96,2.34,8.61,4.16,1.64,1.11,3.21,2.48,4.71,4.08-1.49-1.61-3.07-2.97-4.7-4.08-2.65-1.82-5.54-3.22-8.61-4.17-2.66-.84-5.73-1.24-9.66-1.27h-30.24Z" style="fill:#263238;"></path></g><path d="M258.74,226.14c-.48-1.28-.97-2.58-1.77-3.68-.81-1.1-1.98-2.01-3.34-2.17-1.36-.17-2.86,.57-3.3,1.86-.19-2.91-.61-5.9-2.07-8.43-1.46-2.53-4.18-4.52-7.1-4.34-2.75,.17-5.1,2.21-6.41,4.63s-1.76,5.2-2.19,7.92c-1.04-1.28-3.24-.88-4.33,.36-1.09,1.24-1.36,2.97-1.59,4.61l32.48,.34-.38-1.1Z" style="fill:#ebebeb;"></path><path d="M295.76,197.62c-.78-2.09-1.58-4.21-2.9-6.01-1.32-1.8-3.24-3.28-5.45-3.55-2.21-.27-4.67,.92-5.39,3.03-.32-4.76-.99-9.63-3.37-13.76-2.38-4.13-6.82-7.37-11.58-7.08-4.49,.27-8.33,3.61-10.46,7.56-2.13,3.95-2.87,8.49-3.57,12.93-1.7-2.09-5.29-1.43-7.07,.59-1.77,2.02-2.22,4.85-2.6,7.52l53,.55-.62-1.79Z" style="fill:#ebebeb;"></path></g></g><g id="freepik--Character_2--inject-264"><g><g><path d="M399.06,355.43s8.55,27.05,9.56,31.7c1.01,4.65,48.33,76.62,48.33,76.62l12.59-4.63s-8.35-39.44-17.65-56.35c-9.3-16.91-17.12-20.72-18.39-28.32s0-20.71,0-20.71l-34.45,1.69Z" style="fill:#ffbf9d;"></path><g><path d="M389.34,336.84c-.42,2.11,5.49,38.04,8.03,46.07,2.54,8.03,3.8,14.79,3.8,14.79l5.24,77.77h16.17s3.04-23.18,4.77-36.13c1.92-14.41,5.1-23.46,2.14-39.1-2.96-15.64-11.41-57.06-11.41-57.06l-28.74-6.34Z" style="fill:#ffbf9d;"></path><path d="M389.34,336.84s.16,.02,.48,.09c.34,.07,.81,.17,1.43,.3,1.29,.28,3.17,.68,5.61,1.2,4.94,1.07,12.14,2.63,21.25,4.6l.1,.02,.02,.1c2.84,14.09,6.61,32.82,11.01,54.64,1.16,5.44,1.91,11.23,1.65,17.19-.2,5.96-1.35,12-2.35,18.16-1.01,6.16-1.73,12.53-2.62,19-.85,6.47-1.72,13.06-2.6,19.75-.16,1.21-.32,2.41-.48,3.61l-.03,.23h-.23c-5.48,0-10.88,0-16.17,0h-.24l-.02-.24c-1.95-29.27-3.73-56-5.18-77.77v.02c-.91-4.64-2.05-9.03-3.27-13.14-1.32-4.09-2.08-8.1-2.85-11.82-1.46-7.46-2.56-13.95-3.41-19.27-.85-5.32-1.45-9.48-1.79-12.32-.16-1.42-.28-2.51-.32-3.24-.04-.36-.01-.66,0-.84,0-.19,.02-.27,.02-.27v.29c.02,.19,0,.45,.05,.82,.06,.73,.19,1.81,.37,3.23,.38,2.83,1.01,6.98,1.9,12.3,.89,5.31,2.02,11.79,3.51,19.24,.78,3.72,1.55,7.7,2.88,11.78,1.24,4.12,2.39,8.5,3.32,13.17h0v.02c1.48,21.77,3.3,48.49,5.29,77.76l-.26-.24c5.29,0,10.69,0,16.17,0l-.26,.23c.16-1.2,.32-2.41,.48-3.61,.88-6.69,1.75-13.28,2.61-19.75,.89-6.46,1.61-12.83,2.63-19.01,1.01-6.17,2.15-12.18,2.36-18.1,.27-5.92-.47-11.65-1.61-17.09-4.33-21.83-8.05-40.57-10.85-54.67l.11,.12c-9.06-2.03-16.21-3.64-21.13-4.75-2.45-.56-4.34-.99-5.63-1.28l-1.45-.34c-.33-.08-.5-.13-.5-.13Z" style="fill:#ff9a6c;"></path></g><g><path d="M404.09,468.61v1.42s-21.96,9.93-22.16,14.51l43.79-.7-.81-15.95c-6.47,3.41-13.27,3.89-20.82,.71Z" style="fill:#263238;"></path><path d="M425.72,483.84l-.19-3.84-41.9,2.08s-1.94,.96-1.7,2.46l43.79-.7Z" style="fill:#455a64;"></path><path d="M403.94,470.17c0,.23,1.08,.32,2.14,1.06,1.08,.71,1.64,1.71,1.83,1.61,.2-.05-.14-1.44-1.44-2.31-1.29-.88-2.58-.58-2.53-.36Z" style="fill:#fff;"></path><path d="M399.38,472.32c-.05,.23,.89,.61,1.63,1.59,.77,.95,.96,2.02,1.18,2.01,.2,.03,.33-1.34-.61-2.54-.93-1.21-2.19-1.28-2.19-1.06Z" style="fill:#fff;"></path><path d="M396.85,478.38c.19,.05,.48-1.13-.09-2.4-.56-1.28-1.57-1.77-1.66-1.57-.12,.19,.54,.87,.99,1.93,.47,1.04,.55,2.03,.76,2.05Z" style="fill:#fff;"></path></g><g><path d="M449.83,458.44l.63,1.21s-14.47,18.04-12.64,22.04l37.13-19.64-7.62-13.28c-4.05,5.72-9.66,9.09-17.49,9.66Z" style="fill:#263238;"></path><path d="M474.94,462.06l-1.83-3.19-34.92,19.99s-1.24,1.66-.38,2.84l37.13-19.64Z" style="fill:#455a64;"></path><path d="M450.38,459.84c.11,.2,1.06-.19,2.29-.03,1.23,.13,2.14,.75,2.27,.58,.15-.13-.75-1.17-2.24-1.35-1.49-.19-2.46,.63-2.32,.79Z" style="fill:#fff;"></path><path d="M447.42,463.66c.06,.21,1.02,.14,2.08,.65,1.07,.48,1.7,1.31,1.88,1.21,.19-.06-.3-1.29-1.62-1.9-1.32-.63-2.43-.15-2.33,.05Z" style="fill:#fff;"></path><path d="M447.89,469.94c.19-.04-.08-1.17-1.12-2.01-1.03-.85-2.11-.83-2.1-.62-.02,.22,.84,.51,1.68,1.22,.86,.69,1.35,1.5,1.54,1.42Z" style="fill:#fff;"></path></g></g><g><path d="M345.43,176.02c-.87-6.77-2.76-12.78-2.76-12.78h-20.05s-1.89,6-2.76,12.78c-.96,7.45-.48,16,6.68,19.79,3.8,2.01,8.37,2.01,12.17,0,7.17-3.79,7.67-12.34,6.72-19.79Z" style="fill:#e0e0e0;"></path><path d="M321.05,181.77c.1,4.97,1.55,9.72,6.21,12.2,3.35,1.77,7.38,1.77,10.73,0,4.74-2.51,6.18-7.37,6.24-12.42l-23.18,.22Z" style="fill:#FF725E;"></path><path d="M337.98,192.16c-3.35,1.77-7.39,1.77-10.73,0-4.09-2.17-5.71-6.1-6.11-10.38h-.1c.1,4.97,1.55,9.73,6.21,12.2,3.35,1.77,7.38,1.77,10.73,0,4.74-2.51,6.18-7.37,6.24-12.42h-.09c-.37,4.37-1.98,8.4-6.15,10.61Z" style="opacity:.1;"></path><path d="M329.5,196.51c.28-.07,2.01,3.59,2.11,11.33,0,.66,.37,10.9,.07,11.79,0,0-1.66,2.47-2.18,2.9l3.13,.39v-26.4h-3.13Z" style="fill:#e0e0e0;"></path><path d="M335.79,196.61c-.39-.12-2.18,3.27-2.14,11.24,.03,7.33-.21,10.95,.26,12,0,0,1.66,2.41,2.19,2.84l-3.47,.23v-26.4l3.16,.1Z" style="fill:#e0e0e0;"></path><path d="M344.48,224.68c0,1.5-5.24,2.72-11.7,2.72s-11.7-1.22-11.7-2.72,5.24-2.72,11.7-2.72,11.7,1.22,11.7,2.72Z" style="fill:#e0e0e0;"></path><path d="M344.23,181.75c0,.81-5.19,1.47-11.59,1.47s-11.59-.66-11.59-1.47,5.19-1.47,11.59-1.47,11.59,.66,11.59,1.47Z" style="fill:#FF725E;"></path><path d="M344.23,181.75c0,.81-5.19,1.47-11.59,1.47s-11.59-.66-11.59-1.47,5.19-1.47,11.59-1.47,11.59,.66,11.59,1.47Z" style="opacity:.3;"></path><path d="M324.19,163.96s-7.43,16.31,1.9,25.8c0,0-1.73-4.61-.76-13.45,.57-5.14,3.59-11.13,3.59-11.13-1.71-.27-3.28-.68-4.72-1.21Z" style="fill:#fff; opacity:.3;"></path><path d="M342.59,163.32s-.24,.18-.71,.41c-.47,.24-1.17,.53-2.06,.83-1.78,.61-4.36,1.16-7.24,1.16-2.88,0-5.46-.56-7.24-1.18-.89-.3-1.59-.6-2.06-.84-.47-.23-.72-.38-.71-.41,.04-.08,1.1,.38,2.88,.89,1.78,.51,4.3,.99,7.13,1,2.82,0,5.35-.48,7.13-.98,1.78-.5,2.84-.97,2.88-.88Z" style="fill:#263238;"></path><path d="M335.83,197c.05,.13-1.32,.69-3.11,.67-1.79,0-3.15-.59-3.1-.72,.05-.15,1.4,.18,3.1,.18,1.7,.02,3.06-.29,3.1-.14Z" style="fill:#263238;"></path><g style="opacity:.3;"><path d="M330.95,197.8c.28,1.14,.56,2.28,.84,3.43,.06,.26,.15,.54,.37,.68,.29,.18,.69,0,.89-.27,.2-.28,.26-.63,.33-.96,.19-.9,.6-2.02,1.04-2.83-1.08,.24-2.41,.27-3.48-.04Z" style="fill:#fff;"></path></g></g><g><path d="M459.58,103.2c-.46-2.93-2-5.79-4.51-7.35-2.52-1.57-6.06-1.58-8.3,.36l-1.48,.35c.05,9.19,.1,18.37,.16,27.56,0,1.19,.09,2.56,1.03,3.3,.76,.6,1.89,.56,2.77,.14,.88-.42,1.55-1.16,2.18-1.91,3.33-3.98,5.83-8.66,7.3-13.65,.83-2.85,1.33-5.85,.87-8.78Z" style="fill:#263238;"></path><g><path d="M448.35,91.7c-5.73-7.61-13.65-12.17-23.16-12.71-5.36-.3-7.63,.72-11.54,1.61-3.91,.89-7.48,2.82-9.92,6-2.89,3.78-5.37,8.04-6.08,12.75-.73,4.84-.55,9.6,.22,13.55,.93,4.8,3.9,12.2,6.61,16.27l8.2,1.33c6.84,.51,13.77,1.01,20.5-.29,6.73-1.29,13.36-4.62,17.16-10.33,5.29-7.92,3.73-20.59-2-28.2Z" style="fill:#263238;"></path><path d="M437.33,91.18l-16.26-7.23-4.34,.33c-9.71-.35-16.84,10.09-17.22,17.96-.42,8.74-.59,19.42,.54,25.92,2.27,13.07,13.29,14.59,13.29,14.59,0,0-1.08,15.42-1.34,19.77l25.95-9.34,3.57-57.38c.01-2.39-1.81-4.4-4.19-4.61Z" style="fill:#ffbf9d;"></path><path d="M419.6,125.9c-.06-.69-.42-1.31-.89-1.74-.94-.87-2.35-1.01-3.41-.33-1.06,.67-1.72,2.12-1.58,3.49h0c.55,.82,1.42,1.4,2.4,1.52,.15,.02,.31,.03,.46,.03,.75,.01,1.52-.21,2.11-.74,.59-.53,.98-1.39,.9-2.23Z" style="fill:#ff9a6c;"></path><path d="M402.6,113.85c-.02,.89,.72,1.63,1.64,1.67,.92,.04,1.69-.65,1.71-1.54,.02-.89-.72-1.64-1.64-1.67-.93-.04-1.69,.65-1.71,1.54Z" style="fill:#263238;"></path><path d="M402.29,106.72c.21,.22,1.47-.74,3.28-.77,1.81-.05,3.15,.86,3.34,.64,.1-.1-.12-.49-.71-.9-.57-.41-1.55-.8-2.68-.78-1.13,.02-2.07,.45-2.6,.88-.55,.43-.73,.83-.63,.93Z" style="fill:#263238;"></path><path d="M413.32,121.33c0-.1-1.12-.28-2.94-.49-.46-.04-.9-.13-.98-.44-.11-.33,.07-.83,.29-1.37,.42-1.12,.85-2.3,1.31-3.54,1.82-5.03,3.13-9.17,2.93-9.24-.2-.07-1.84,3.95-3.67,8.98-.44,1.24-.86,2.42-1.25,3.55-.17,.53-.46,1.13-.21,1.82,.13,.34,.47,.59,.77,.66,.3,.09,.56,.09,.79,.1,1.83,.07,2.97,.06,2.98-.04Z" style="fill:#263238;"></path><path d="M413.31,142.72s8.82,.44,17.47-4.94c0,0-4.54,9.15-17.66,8.12l.19-3.18Z" style="fill:#ff9a6c;"></path><path d="M402.01,101.19c.31,.44,1.69,.12,3.31,.23,1.62,.06,2.97,.52,3.31,.11,.16-.2-.03-.62-.59-1.06-.56-.43-1.52-.83-2.63-.89-1.11-.06-2.11,.24-2.7,.61-.61,.37-.83,.78-.69,.99Z" style="fill:#263238;"></path><path d="M421.19,114.3c.01,.89-.73,1.63-1.66,1.66-.92,.03-1.69-.67-1.7-1.55-.01-.89,.73-1.63,1.66-1.66,.93-.03,1.69,.67,1.7,1.55Z" style="fill:#263238;"></path><path d="M426.73,107c-.21,.21-1.46-.76-3.27-.79-1.8-.06-3.15,.84-3.34,.61-.09-.1,.13-.49,.71-.9,.58-.41,1.56-.79,2.68-.76,1.13,.03,2.06,.47,2.6,.9,.55,.44,.73,.84,.62,.94Z" style="fill:#263238;"></path><path d="M424.04,100.75c-.36,.41-1.75-.03-3.43-.06-1.68-.08-3.1,.26-3.42-.17-.14-.21,.08-.62,.71-1,.61-.38,1.64-.69,2.79-.66,1.15,.04,2.15,.42,2.73,.84,.59,.43,.78,.85,.62,1.05Z" style="fill:#263238;"></path><path d="M438.39,117.66c-.01-.98,1.08-3.29,2.04-3.46,2.57-.44,7.21-.3,7.35,6.23,.19,8.93-8.81,7.28-8.83,7.02-.02-.2-.51-6.43-.55-9.8Z" style="fill:#ffbf9d;"></path><path d="M441.34,124.14s.16,.11,.42,.22c.26,.11,.7,.18,1.16,0,.94-.37,1.7-1.88,1.71-3.49,0-.81-.18-1.58-.48-2.22-.29-.65-.72-1.09-1.2-1.17-.47-.1-.8,.19-.91,.45-.11,.25-.05,.43-.1,.45-.02,.02-.2-.15-.13-.52,.03-.18,.13-.39,.34-.57,.21-.18,.52-.27,.86-.25,.69,.03,1.32,.65,1.65,1.35,.37,.7,.6,1.56,.59,2.48-.02,1.8-.9,3.5-2.19,3.9-.62,.18-1.15,0-1.43-.21-.28-.21-.33-.41-.3-.43Z" style="fill:#ff9a6c;"></path><path d="M440.8,114.24l-2.36,2.26c-14.65-8.64-30.33-33.35-26.55-32.49,0,0,6.8-2.49,14.02-.96,7.22,1.53,20.85,5.72,20.3,14.28-.55,8.56-5.42,16.91-5.42,16.91Z" style="fill:#263238;"></path><path d="M445.75,114.02s-.61-.18-1.66-.62c-1.05-.45-2.55-1.13-4.37-2.06-3.62-1.85-8.55-4.7-13.25-8.83-4.71-4.13-8.06-8.81-9.88-12.47-.92-1.83-1.53-3.37-1.87-4.46-.35-1.09-.48-1.71-.44-1.72,.13-.04,.8,2.4,2.74,5.95,1.91,3.56,5.27,8.11,9.91,12.18,4.64,4.08,9.48,6.97,13.03,8.91,1.78,.97,3.24,1.72,4.25,2.24,1.01,.52,1.57,.82,1.55,.86Z" style="fill:#455a64;"></path><path d="M444.75,128.1c.09,1.84-1.33,3.41-3.18,3.5-1.84,.09-3.41-1.33-3.5-3.18-.09-1.84,1.33-3.41,3.18-3.5,1.84-.09,3.41,1.33,3.5,3.18Z" style="fill:#263238;"></path><path d="M413.2,127.63c.02-.32,2.12-.06,3.84-1.67,1.72-1.61,1.77-3.88,2.07-3.86,.14-.01,.35,.55,.25,1.5-.08,.93-.55,2.25-1.61,3.24-1.05,.98-2.33,1.3-3.21,1.26-.89-.03-1.38-.33-1.35-.47Z" style="fill:#263238;"></path></g><path d="M400.43,85.17s2.18-4.28,10.71-9.25c8.68-5.06,27.06,2.25,27.06,2.25l-37.77,6.99Z" style="fill:#FF725E;"></path><path d="M400.43,85.17s2.18-4.28,10.71-9.25c8.68-5.06,27.06,2.25,27.06,2.25l-37.77,6.99Z" style="opacity:.3;"></path><path d="M397.96,95.32s-2.28-7.87-.53-10.8c1.76-2.94,31.56-9.11,42.44-8.31,0,0,1.24-.06,2.42,1.78,1.18,1.84,6.07,13.72,6.07,13.72,0,0-33.78-6.32-50.4,3.61Z" style="fill:#FF725E;"></path><path d="M448.8,122.35c-.09-.06,.84-1.46,1.87-3.94,.53-1.24,1.02-2.76,1.44-4.48,.39-1.73,.68-3.66,.76-5.71,.06-2.05-.1-3.99-.36-5.75-.3-1.75-.68-3.3-1.12-4.57-.86-2.55-1.69-4.01-1.59-4.06,.03-.02,.25,.34,.62,1,.19,.33,.41,.74,.62,1.24,.22,.49,.49,1.05,.7,1.7,.49,1.27,.92,2.84,1.25,4.61,.3,1.78,.47,3.76,.41,5.85-.09,2.08-.4,4.05-.82,5.8-.45,1.75-.99,3.28-1.57,4.52-.26,.63-.57,1.16-.82,1.64-.24,.48-.49,.88-.7,1.19-.42,.64-.66,.98-.69,.96Z" style="fill:#455a64;"></path><path d="M435.91,76.05s-.51,.08-1.44,.14c-.93,.05-2.27,.14-3.92,.27-3.31,.26-7.87,.79-12.84,1.76-4.97,.98-9.39,2.21-12.55,3.21-1.58,.5-2.86,.92-3.74,1.22-.88,.3-1.37,.45-1.39,.41-.01-.03,.46-.25,1.32-.6,.86-.36,2.12-.84,3.69-1.38,3.15-1.1,7.58-2.39,12.57-3.37,4.99-.97,9.59-1.44,12.91-1.61,1.66-.09,3.01-.12,3.94-.11,.93,0,1.45,.03,1.45,.06Z" style="fill:#263238;"></path></g><polygon points="365.61 223.53 299.71 223.53 299.71 225.6 304.15 225.6 307.1 228.55 354.68 228.55 358.52 226.04 365.61 226.04 365.61 223.53" style="fill:#455a64;"></polygon><g><path d="M380.42,260.22s-.1,19.11,.23,41.22c.33,22.38,0,56.92,0,56.92,0,0,11.34,5.84,37.5,3.79,26.15-2.04,23-4.96,23-4.96,0,0-3.78-49.04-2.52-54.88,1.26-5.84,6.3-15.61-1.26-33.35-7.56-17.74-19.22-22.99-19.22-22.99l-37.73,14.24Z" style="fill:#FF725E;"></path><path d="M392.83,354.39s-.08-.23-.17-.67c-.1-.5-.23-1.14-.39-1.94-.34-1.69-.77-4.14-1.24-7.18-.95-6.08-1.99-14.53-2.55-23.91-.55-9.38-.53-17.9-.3-24.05,.11-3.08,.25-5.56,.38-7.28,.07-.82,.12-1.47,.16-1.97,.04-.45,.07-.69,.09-.69,.02,0,.02,.24,.01,.69-.02,.51-.04,1.16-.06,1.98-.07,1.72-.15,4.2-.22,7.28-.13,6.14-.1,14.64,.45,24.01,.56,9.36,1.54,17.8,2.4,23.89,.43,3.04,.8,5.5,1.08,7.2,.12,.81,.22,1.46,.3,1.96,.06,.45,.09,.69,.07,.69Z" style="fill:#263238;"></path></g><g><path d="M404.87,163.87c.23-.42,7.43-11.57,8.02-12.01,.59-.44,8.68-10,21.05-11.42,12.36-1.42,2.67,12.91,2.67,12.91l-31.74,10.52Z" style="fill:#e0e0e0;"></path><path d="M407.42,156.71c-.6,.22-22.06,20.67-23.64,34.22-1.58,13.55,2.3,21.15,.13,30.93-2.17,9.79-8.83,37.74-7.61,50.02,0,0,21.82-5.39,33.15-3.1,11.32,2.29,34.23,.3,34.73-2.01,.5-2.3-5.43-20.87-12.1-34.67,0,0,.98-9.84,1.78-14.25,.8-4.4,3.71-17.07,7.64-28.46,3.93-11.39-.07-33.28-4.54-39.2,0,0-4.98-3.57-14.38-.07-9.41,3.5-15.14,6.57-15.14,6.57Z" style="fill:#FF725E;"></path><path d="M378.36,222.1s-7.29-3.79-10.42-4.37-6.36,2.97-10.8,2.97-5.93,2.73-5.93,2.73l.02,.44,10.33-.51c.38-.02,.49,.51,.13,.64-4.19,1.5-13.17,4.86-13.55,6.23-.5,1.8-.19,2.23,1.88,2.13s6.79-.33,6.79-.33c0,0,3.11,3.1,7.46,4.22,4.34,1.12,16.03-2.67,16.03-2.67l4.66,.42,.44-11.8-7.03-.1Z" style="fill:#ffbf9d;"></path><g><path d="M411.88,176.97c.07,.73,3.17,43.87,.52,44s-26.94-.72-26.94-.72l-.7,18.99s25.23,7.53,41.46,5.92c16.23-1.61,14.83-13.57,14.98-27.03,.16-13.46-2.15-44.28-3.48-50.38-1.45-6.61-6.69-14.96-14.94-13.13-5.82,1.29-12.61,5.38-10.91,22.34Z" style="fill:#FF725E;"></path><path d="M411.88,176.97s-.03-.23-.08-.69c-.04-.47-.1-1.15-.17-2.03-.06-1.78-.24-4.44,.33-7.81,.33-1.67,.78-3.53,1.74-5.38,.95-1.85,2.49-3.63,4.58-4.89,2.12-1.18,4.67-2.04,7.46-1.95,1.39,.13,2.78,.52,4.08,1.22,1.29,.7,2.44,1.7,3.46,2.84,2.05,2.29,3.5,5.24,4.4,8.44,.45,1.61,.65,3.31,.88,5.01,.22,1.71,.41,3.45,.59,5.23,.7,7.1,1.28,14.7,1.73,22.71,.22,4,.42,8.11,.53,12.31,.12,4.2,.04,8.49,.02,12.85-.05,2.18-.09,4.4-.4,6.61-.3,2.21-.78,4.45-1.79,6.52-1.02,2.06-2.67,3.83-4.69,5l-.75,.45c-.26,.13-.53,.23-.8,.34-.54,.21-1.07,.48-1.63,.64-1.13,.28-2.24,.65-3.41,.77-7.71,1.08-15.3,.1-22.53-1-7.24-1.2-14.17-2.81-20.74-4.69l-.18-.05v-.19c.26-6.63,.5-12.97,.72-18.99v-.23h.24c5.31,.19,10.41,.36,15.26,.52,2.43,.07,4.79,.13,7.09,.2,1.15,.02,2.28,.04,3.4,.06,.28,0,.56,0,.83,0,.11,0,.33,0,.36-.02,.04,0,.11-.09,.17-.2,.21-.45,.3-1,.38-1.52,.28-2.13,.3-4.24,.33-6.26,.02-2.02,0-3.98-.04-5.86-.07-3.76-.21-7.21-.34-10.33-.27-6.24-.55-11.15-.75-14.5-.1-1.66-.17-2.94-.22-3.83-.05-.87-.06-1.32-.06-1.32,0,0,.02,.11,.04,.33,.02,.24,.05,.56,.09,.98,.07,.88,.17,2.16,.29,3.82,.24,3.35,.57,8.25,.88,14.49,.15,3.12,.3,6.57,.39,10.33,.05,1.88,.08,3.84,.06,5.87-.02,2.03-.04,4.13-.31,6.31-.08,.54-.16,1.09-.41,1.65-.08,.13-.16,.3-.39,.39-.23,.06-.31,.02-.47,.04-.28,0-.56,0-.84,0-1.12-.02-2.25-.03-3.41-.05-2.3-.06-4.67-.12-7.09-.18-4.85-.15-9.95-.31-15.26-.47l.24-.22c-.22,6.02-.45,12.36-.68,18.99l-.18-.24c6.54,1.86,13.47,3.46,20.68,4.65,3.61,.58,7.29,1.04,11.03,1.3,3.74,.22,7.56,.26,11.33-.31,1.15-.11,2.23-.47,3.33-.75,.54-.16,1.05-.42,1.58-.62,.26-.11,.53-.21,.78-.33l.72-.44c1.94-1.12,3.51-2.8,4.49-4.78,.97-1.99,1.45-4.18,1.74-6.36,.3-2.18,.35-4.38,.4-6.55,.02-4.36,.11-8.65-.01-12.83-.1-4.19-.29-8.29-.51-12.29-.44-8-1-15.6-1.68-22.69-.18-1.77-.36-3.51-.57-5.22-.22-1.7-.42-3.38-.85-4.96-.88-3.15-2.3-6.06-4.29-8.3-.99-1.12-2.11-2.09-3.35-2.78-1.25-.68-2.59-1.06-3.93-1.19-2.69-.1-5.22,.72-7.29,1.87-2.05,1.22-3.56,2.94-4.51,4.76-.96,1.82-1.41,3.65-1.76,5.3-.59,3.34-.45,5.99-.42,7.76,.05,.88,.09,1.55,.12,2.03,.02,.46,.02,.69,.02,.69Z" style="fill:#263238;"></path></g><path d="M444.27,267.07s-.22,.11-.65,.26c-.44,.14-1.07,.4-1.91,.62-1.67,.51-4.14,1.08-7.23,1.49-3.09,.42-6.81,.61-10.94,.57-4.12-.05-8.64-.34-13.38-.67-4.74-.32-9.25-.56-13.36-.52-4.1,.04-7.8,.34-10.85,.86-3.06,.52-5.49,1.17-7.13,1.72-.83,.25-1.45,.52-1.89,.65-.43,.15-.66,.22-.67,.21s.21-.12,.63-.3c.43-.17,1.04-.47,1.86-.75,1.63-.62,4.07-1.33,7.14-1.9,3.07-.57,6.79-.91,10.91-.98,4.13-.07,8.66,.16,13.4,.49,4.74,.33,9.25,.64,13.35,.71,4.1,.08,7.8-.08,10.88-.45,3.08-.37,5.55-.88,7.22-1.32,.85-.19,1.48-.42,1.93-.53,.44-.12,.68-.18,.68-.16Z" style="fill:#263238;"></path></g></g></g><g id="freepik--Character_1--inject-264"><g><polygon points="309.65 480.1 89.68 480.1 89.68 447.4 292.4 447.4 309.65 480.1" style="fill:#455a64;"></polygon><g><g><path d="M309.53,363.16l13.27,23.58s28.09-5.33,30.96-1.21l-44.15,26.92-22.17-35.91,22.09-13.39Z" style="fill:#263238;"></path><path d="M307.96,393.13c-.71,.76-.71,2.09,.03,2.85,.73,.76,2.08,.78,2.81,.04,.72-.74,.77-2.35-.05-3.02-.81-.67-2.4-.61-2.92,.29" style="fill:#e0e0e0;"></path><path d="M309.61,412.46l-2.09-3.71,43.12-24.43s2.5-.33,3.13,1.21l-44.15,26.92Z" style="fill:#455a64;"></path><path d="M323.38,386.08c.13,.22-.89,.98-1.52,2.33-.67,1.33-.63,2.62-.89,2.65-.22,.08-.7-1.43,.09-3.05,.78-1.63,2.24-2.16,2.32-1.93Z" style="fill:#fff;"></path><path d="M329.19,385.2c.18,.18-.53,1.12-.7,2.5-.21,1.37,.22,2.48,0,2.6-.18,.16-1.11-1.03-.87-2.73,.23-1.7,1.44-2.57,1.57-2.36Z" style="fill:#fff;"></path><path d="M335.26,389.22c-.17,.17-1.14-.74-1.31-2.28-.19-1.54,.54-2.63,.74-2.5,.23,.11-.03,1.15,.13,2.41,.14,1.26,.64,2.22,.44,2.37Z" style="fill:#fff;"></path></g><g><path d="M313.54,421.43l13.33,24.81s29.34-4.98,32.24-.63l-46.5,27.13-22.34-37.82,23.26-13.48Z" style="fill:#263238;"></path><path d="M311.31,452.58c-.75,.77-.78,2.16-.03,2.97,.75,.8,2.15,.85,2.92,.09,.77-.76,.84-2.43,.01-3.14-.83-.71-2.48-.69-3.04,.24" style="fill:#e0e0e0;"></path><path d="M312.63,472.73l-2.1-3.9,45.37-24.55s2.6-.29,3.23,1.32l-46.5,27.13Z" style="fill:#455a64;"></path><path d="M327.49,445.56c.13,.23-.95,1-1.63,2.39-.72,1.37-.71,2.71-.98,2.74-.23,.08-.7-1.5,.16-3.17,.84-1.68,2.38-2.2,2.45-1.96Z" style="fill:#fff;"></path><path d="M333.56,444.76c.18,.19-.57,1.16-.77,2.58-.24,1.42,.18,2.59-.05,2.71-.19,.16-1.14-1.1-.85-2.86,.27-1.77,1.55-2.64,1.68-2.43Z" style="fill:#fff;"></path><path d="M339.79,449.07c-.18,.17-1.17-.8-1.32-2.4-.17-1.6,.61-2.72,.82-2.59,.24,.11-.05,1.19,.09,2.51,.12,1.32,.62,2.33,.41,2.48Z" style="fill:#fff;"></path></g><g><path d="M185.32,356.44c.18-.06,1.5-.47,3.68-1.14,13.94-4.31,61.34-12.8,68.76-13.19,8.58-.45,12.51,.5,15.66,5.01s51.12,92.67,51.12,92.67l-30.64,17.28-38.22-64.47s-51.4,21.17-70.36,17.56c-18.96-3.61-36.11-13.09-36.11-13.09v-30.24l36.11-10.38" style="fill:#263238;"></path><path d="M321.35,377.53s-33.74-61.1-40.77-69.64c-8.33-10.12-20.83-7.38-28.38-4.36-7.55,3.02-72.77,46.08-72.77,46.08l36.67,29.5,38.09-31.98c6.51-6.36,15.42-5.7,19.43,2.47l26.59,44.73,21.15-16.8Z" style="fill:#263238;"></path></g><path d="M272.13,333.34s-.28,.3-.84,.78c-.56,.47-1.39,1.15-2.41,1.97-2.05,1.64-4.91,3.89-8.09,6.32-3.18,2.44-6.09,4.62-8.22,6.15-2.12,1.54-3.52,2.43-3.57,2.32,2.02-1.56,5.85-4.53,11.48-8.89,3.18-2.44,6.07-4.63,8.18-6.2,.99-.72,1.83-1.34,2.51-1.84,.6-.43,.94-.65,.96-.62Z" style="fill:#455a64;"></path><path d="M324.55,439.79s-.07-.08-.17-.26c-.12-.2-.27-.46-.46-.78-.41-.72-.99-1.73-1.73-3.02-1.5-2.67-3.64-6.47-6.27-11.16-5.27-9.48-12.52-22.52-20.52-36.93-7.95-14.44-15.15-27.51-20.38-37.01-1.27-2.37-2.82-4.29-4.5-5.59-1.66-1.33-3.39-2.05-4.84-2.42-1.45-.39-2.63-.44-3.42-.48h-.9c-.2-.01-.31-.02-.31-.03,0,0,.1-.02,.31-.03,.23-.01,.53-.03,.91-.04,.79,0,1.99,.02,3.47,.39,1.48,.34,3.26,1.05,4.97,2.39,1.73,1.31,3.34,3.26,4.64,5.65,5.27,9.48,12.51,22.53,20.52,36.94,7.95,14.43,15.16,27.5,20.39,37,2.57,4.72,4.66,8.56,6.13,11.24,.7,1.31,1.25,2.34,1.64,3.07,.17,.33,.31,.6,.42,.8,.09,.18,.13,.28,.13,.28Z" style="fill:#455a64;"></path></g><g><path d="M108.17,219.92c-1.84-5.32-3.66-10.68-4.56-16.23-.9-5.56-.84-11.37,1.02-16.68,.28-.8,2.71-6.22,3.56-6.15,.61,.05-.86,5.08-.54,5.6,3.02,4.97,3.94,11,3.58,16.81-.36,5.81-1.46,11.05-3.06,16.65" style="fill:#e0e0e0;"></path><path d="M128.18,171.85l1.31,.04c13.14,.45,23.74,10.92,24.34,24.05,.56,12.22,1.03,25.73,.72,32.27-.63,13.53-14.24,15.17-14.24,15.17-.03,0,.84,14.3,.84,14.3l-14.27,.47-16.36-4.48-3.31-55.21c-.73-14.1,6.87-26.27,20.98-26.61Z" style="fill:#ffbf9d;"></path><path d="M140.31,243.39s-8.55,.21-17.44-5.82c0,0,4.13,10.82,17.68,10.07l-.24-4.25Z" style="fill:#ff9a6c;"></path><path d="M149.96,207.95c0,1.02-.86,1.87-1.93,1.89-1.07,.02-1.93-.79-1.93-1.81,0-1.02,.86-1.87,1.93-1.89,1.07-.02,1.93,.79,1.93,1.81Z" style="fill:#263238;"></path><path d="M150.74,201.83c-.25,.24-1.68-.89-3.76-.96-2.08-.1-3.64,.92-3.86,.66-.11-.12,.15-.56,.83-1.02,.67-.46,1.8-.89,3.1-.84,1.3,.05,2.37,.57,2.98,1.08,.62,.51,.82,.98,.7,1.08Z" style="fill:#263238;"></path><path d="M132.3,207.95c0,1.02-.86,1.87-1.93,1.89-1.07,.02-1.93-.79-1.93-1.81,0-1.02,.86-1.87,1.93-1.89,1.07-.02,1.93,.79,1.93,1.81Z" style="fill:#263238;"></path><path d="M130.34,201.61c-.25,.24-1.68-.89-3.76-.96-2.08-.1-3.64,.92-3.86,.66-.11-.12,.15-.56,.83-1.02,.67-.46,1.8-.89,3.1-.84,1.3,.05,2.37,.57,2.98,1.08,.62,.51,.82,.98,.7,1.08Z" style="fill:#263238;"></path><path d="M137.25,217.85c0-.12,1.3-.3,3.4-.49,.53-.04,1.04-.12,1.14-.48,.14-.38-.06-.96-.3-1.59-.46-1.3-.93-2.67-1.43-4.1-1.98-5.83-3.4-10.62-3.16-10.7,.24-.08,2.03,4.59,4.02,10.42,.48,1.44,.93,2.81,1.36,4.12,.18,.61,.5,1.31,.2,2.09-.16,.39-.56,.67-.9,.75-.34,.09-.64,.09-.91,.09-2.11,.04-3.42,0-3.42-.11Z" style="fill:#263238;"></path><path d="M131.23,195.13c-.3,.52-2.3-.11-4.76-.24-2.45-.19-4.52,.17-4.75-.38-.1-.26,.33-.73,1.21-1.13,.87-.4,2.2-.69,3.68-.6,1.47,.1,2.75,.56,3.56,1.07,.82,.51,1.19,1.03,1.05,1.28Z" style="fill:#e0e0e0;"></path><path d="M151.05,195.72c-.44,.46-2.13-.06-4.16-.12-2.03-.12-3.77,.24-4.16-.26-.17-.24,.11-.71,.87-1.14,.75-.43,2-.77,3.4-.71,1.4,.06,2.6,.52,3.3,1.01,.71,.5,.94,.99,.74,1.22Z" style="fill:#e0e0e0;"></path><path d="M107.96,208.52c-.23-.11-9.21-3.07-9.23,6.19s10.17,7.69,10.19,7.42c.02-.27-.96-13.62-.96-13.62Z" style="fill:#ffbf9d;"></path><path d="M105.21,218.31s-.16,.11-.43,.24c-.27,.12-.72,.2-1.21,.02-.98-.36-1.8-1.92-1.84-3.59-.02-.84,.16-1.65,.46-2.31,.28-.68,.72-1.15,1.22-1.24,.49-.11,.84,.18,.95,.44,.12,.26,.06,.44,.11,.46,.03,.02,.2-.15,.13-.54-.04-.18-.15-.4-.36-.58-.22-.18-.55-.27-.89-.24-.71,.05-1.36,.7-1.69,1.43-.37,.73-.59,1.63-.57,2.58,.05,1.87,1.01,3.62,2.34,4.01,.65,.17,1.2-.02,1.48-.24,.29-.23,.34-.43,.3-.45Z" style="fill:#ff9a6c;"></path><path d="M147.74,180.64c1.49-.84-3.04-5.66-6.73-7.31-5.58-2.49-14.1-3.99-19.22-2.5-6.17,1.79-11.29,4.9-14.35,10.55-3.07,5.65-4.19,12.21-3.97,18.63,.07,1.96,.28,4,1.34,5.65,1.31,2.04,3.8,3.31,3.71,6.14-.03,1.03,.27,2.07,.98,2.82,1.71,1.79,3.77,.09,4.71-1.62,2.01-3.64,2.21-7.97,2.36-12.13,.11-2.96,.21-5.97-.64-8.81-.46-1.54-1.2-3-1.58-4.56-.38-1.56-.34-3.34,.63-4.63,.16-.21,.42-.47,.75-.77,2.61-2.32,6.28-3.03,9.57-1.89,5.23,1.81,14.15,4.51,16.47,2.73,3.33-2.57,4.12-4.23,4.12-4.23l1.85,1.93Z" style="fill:#e0e0e0;"></path><path d="M130.73,219.18c.32-.02,.35,2.1,2.18,3.59,1.84,1.49,4.1,1.23,4.12,1.53,.03,.13-.5,.42-1.46,.46-.94,.04-2.31-.24-3.44-1.15-1.12-.91-1.61-2.14-1.7-3.02-.09-.89,.14-1.42,.29-1.41Z" style="fill:#263238;"></path></g><g><path d="M108.84,237.3l.1-3.18,31.7,12.27,5.15,9.87s12.23,12.92,17.01,18.56c5.93,7,17.44,27.62,17.44,27.62l-22-13.6-24.07-37.3-25.32-14.23Z" style="fill:#fff;"></path><path d="M108.93,236.82l-1.36,6.61s-11.49,13.51-13.45,20.6c-3.33,12.07-2.48,26.97-2.48,26.97l34.24,70.97,87.2,2.27s-25.48-49.08-33.45-64.74c-7.96-15.67-41.81-49.27-41.81-49.27,0,0-18.16-12.65-28.91-13.41Z" style="fill:#263238;"></path><path d="M178.97,298.22s-.07-.05-.18-.15l-.49-.49c-.46-.47-1.08-1.11-1.86-1.91-1.64-1.7-3.97-4.11-6.83-7.06-5.78-5.95-13.76-14.17-22.88-22.94-1.15-1.09-2.29-2.16-3.41-3.21-1.14-1.04-2.26-2.06-3.36-3.06-1.11-1-2.23-1.93-3.31-2.87-1.11-.9-2.2-1.78-3.3-2.58-.56-.38-1.12-.75-1.67-1.11-.56-.35-1.16-.64-1.72-.95-1.15-.6-2.27-1.17-3.38-1.66-2.2-1.03-4.31-1.88-6.24-2.61-3.87-1.48-7.08-2.46-9.3-3.13-1.08-.31-1.94-.56-2.56-.74-.27-.08-.49-.14-.67-.19-.15-.05-.23-.07-.22-.08,0,0,.08,0,.24,.03,.18,.04,.41,.09,.68,.14,.6,.13,1.47,.35,2.59,.65,2.24,.61,5.47,1.55,9.37,2.98,1.95,.71,4.07,1.55,6.29,2.57,1.12,.49,2.25,1.06,3.41,1.65,.57,.31,1.17,.6,1.74,.95,.56,.37,1.14,.75,1.72,1.13,1.12,.8,2.22,1.69,3.34,2.59,1.09,.94,2.22,1.88,3.33,2.87,1.11,1,2.23,2.03,3.37,3.07,1.12,1.06,2.26,2.13,3.41,3.22,9.13,8.78,17.07,17.05,22.78,23.06,2.85,3.01,5.14,5.47,6.71,7.18,.76,.83,1.35,1.5,1.79,1.98l.46,.53c.1,.12,.15,.18,.14,.19Z" style="fill:#455a64;"></path></g><g><path d="M90.24,396.86v54.01h191.49c6.63,0,12-5.37,12-12v-30.01c0-6.63-5.37-12-12-12H90.24Z" style="fill:#455a64;"></path><path d="M56.38,183.35c-2.1,.37-28.22,2.86-35.28,22.89-7.07,20.03,61.03,182.89,69.14,190.63h45.77s-.48-26.12-12.4-62.84c-11.92-36.72-38.15-83.44-41.96-88.21-3.81-4.77-13.56-64.51-25.27-62.46Z" style="fill:#455a64;"></path><g><rect x="84.64" y="345.54" width="193.09" height="51.32" rx="13.75" ry="13.75" style="fill:#455a64;"></rect><path d="M263.98,396.86s.41-.04,1.2-.09c.4-.02,.88-.13,1.46-.21,.29-.05,.59-.15,.92-.23,.33-.08,.68-.19,1.04-.33,1.45-.52,3.17-1.44,4.81-2.99,.81-.78,1.61-1.71,2.26-2.83,.68-1.1,1.24-2.38,1.56-3.81,.36-1.42,.43-2.96,.39-4.6,0-1.63,0-3.35-.01-5.14,0-3.58-.01-7.47-.02-11.65-.02-2.09,.03-4.26-.05-6.48-.04-1.1-.28-2.21-.59-3.3-.38-1.07-.81-2.15-1.46-3.13-.28-.52-.68-.95-1.03-1.44-.41-.43-.78-.91-1.24-1.29-.86-.84-1.9-1.51-2.98-2.1-1.09-.58-2.29-.97-3.53-1.25-1.25-.23-2.52-.29-3.85-.27-42.1,.02-100.24,.05-164.46,.08-3.95-.02-7.81,1.82-10.32,4.8-1.27,1.48-2.17,3.25-2.68,5.11-.55,1.87-.51,3.81-.5,5.77,0,3.91,0,7.79,0,11.64,0,1.93,0,3.84,0,5.75v4.28l.08,1.39c.37,3.71,2.38,7.15,5.3,9.34,1.45,1.1,3.13,1.89,4.88,2.32,1.75,.46,3.57,.41,5.4,.41,7.28,0,14.41,0,21.37,0,27.83,.02,52.89,.04,73.94,.06,21.04,.03,38.07,.06,49.85,.08,5.88,.02,10.44,.04,13.55,.05,1.54,.01,2.72,.02,3.52,.03,.79,0,1.2,.03,1.2,.03,0,0-.41,.02-1.2,.03-.8,0-1.98,.01-3.52,.03-3.11,.01-7.67,.03-13.55,.05-11.78,.02-28.81,.05-49.85,.08-21.05,.02-46.11,.03-73.94,.06-6.96,0-14.09,0-21.37,0-1.8,0-3.69,.06-5.52-.42-1.82-.45-3.55-1.27-5.06-2.41-3.03-2.26-5.11-5.84-5.51-9.69l-.08-1.44v-4.28c0-1.91,0-3.83,0-5.75,0-3.85,0-7.73,0-11.64,0-1.93-.05-3.97,.52-5.91,.53-1.93,1.47-3.77,2.79-5.3,2.6-3.09,6.61-5,10.72-4.98,64.22,.03,122.36,.06,164.46,.08,1.31-.02,2.64,.05,3.92,.29,1.26,.3,2.5,.69,3.62,1.29,1.11,.6,2.17,1.3,3.05,2.16,.48,.4,.85,.89,1.27,1.33,.35,.5,.76,.95,1.05,1.48,.67,1,1.1,2.11,1.49,3.21,.31,1.12,.56,2.25,.6,3.38,.08,2.25,.02,4.4,.03,6.49,0,4.18-.01,8.07-.02,11.65,0,1.79,0,3.5-.01,5.14,.03,1.63-.05,3.21-.42,4.65-.34,1.44-.92,2.74-1.61,3.85-.67,1.13-1.48,2.07-2.3,2.85-1.67,1.56-3.41,2.47-4.88,2.98-.36,.14-.71,.25-1.05,.32-.33,.08-.64,.17-.93,.22-.59,.08-1.07,.18-1.47,.19-.8,.03-1.2,.03-1.2,.03Z" style="fill:#263238;"></path></g><path d="M94.88,211.89c-1.11-3.46-2.22-6.93-3.33-10.39-1.15-3.57-2.43-7.36-5.35-9.72-2.64-2.14-6.27-2.75-9.63-2.29-3.36,.46-8.87,1.89-11.85,3.51v.72c3.27,14.43,7.5,28.64,12.65,42.51,.59,1.6,1.23,3.24,2.39,4.49,2.06,2.22,5.48,2.79,8.4,1.98,5.7-1.57,9.25-7.6,9.8-13.49,.55-5.89-1.28-11.71-3.09-17.34Z" style="fill:#455a64;"></path><path d="M278.52,446.67s28.82,33.57,30.15,33.39c1.33-.19,10.15-7.29,11.2-8.11,1.06-.82-25.22-31.16-27.38-32.62-2.16-1.47-13.97,7.35-13.97,7.35Z" style="fill:#455a64;"></path><path d="M89.68,346.03s-.04-.13-.1-.4c-.06-.29-.13-.68-.23-1.19-.19-1.04-.48-2.58-.9-4.56-.82-3.95-2.14-9.64-4.28-16.52-2.17-6.87-5.15-14.94-9.34-23.5-2.08-4.28-4.46-8.69-7.12-13.13-2.66-4.45-5.63-8.92-8.74-13.46-6.24-9.06-12.37-17.6-17.29-25.79-4.94-8.18-8.61-16.01-10.92-22.87-2.35-6.85-3.28-12.67-3.66-16.68-.15-2.01-.24-3.58-.22-4.64v-1.21c0-.27,0-.41,.02-.41s.02,.14,.04,.41c.01,.3,.03,.7,.05,1.21,.01,1.06,.14,2.62,.32,4.63,.44,3.99,1.42,9.78,3.81,16.58,2.34,6.81,6.03,14.6,10.98,22.74,4.93,8.16,11.07,16.67,17.31,25.74,3.11,4.54,6.08,9.03,8.75,13.49,2.67,4.46,5.04,8.88,7.12,13.18,4.17,8.6,7.13,16.7,9.26,23.6,2.1,6.91,3.36,12.63,4.12,16.59,.39,1.98,.64,3.53,.8,4.58,.08,.51,.14,.9,.18,1.2,.04,.27,.05,.41,.04,.41Z" style="fill:#263238;"></path><path d="M80.8,242.56s-.11-.16-.27-.5c-.18-.39-.4-.87-.67-1.46-.57-1.27-1.36-3.13-2.3-5.45-1.88-4.63-4.3-11.1-6.6-18.36-2.3-7.27-4.06-13.95-5.19-18.81-.57-2.43-1-4.41-1.26-5.78-.12-.64-.22-1.16-.3-1.58-.06-.36-.09-.55-.07-.56,.02,0,.08,.18,.17,.54,.1,.41,.23,.93,.39,1.56,.35,1.42,.84,3.37,1.42,5.73,1.22,4.84,3.03,11.49,5.33,18.74,2.31,7.25,4.66,13.73,6.45,18.38,.89,2.27,1.61,4.14,2.14,5.51,.23,.61,.42,1.1,.58,1.5,.13,.35,.18,.53,.17,.54Z" style="fill:#263238;"></path><path d="M293.3,441.52c0,.14-45.58,.26-101.8,.26s-101.81-.12-101.81-.26,45.57-.26,101.81-.26,101.8,.12,101.8,.26Z" style="fill:#263238;"></path></g><path d="M275.31,396.56c0,.14-40.46,.26-90.35,.26s-90.36-.12-90.36-.26,40.45-.26,90.36-.26,90.35,.12,90.35,.26Z" style="fill:#263238;"></path><g><g><path d="M252.67,278.25c-.86-6.72-2.74-12.68-2.74-12.68h-19.9s-1.87,5.96-2.74,12.68c-.95,7.39-.47,15.87,6.63,19.64,3.77,2,8.31,1.99,12.08,0,7.12-3.76,7.61-12.24,6.66-19.64Z" style="fill:#e0e0e0;"></path><path d="M230.16,291.89c.96,1.69,2.34,3.14,4.3,4.18,3.32,1.76,7.33,1.76,10.65,0,1.75-.93,3.05-2.17,3.99-3.63l-18.94-.54Z" style="fill:#FF725E;"></path><path d="M245.28,294.26c-3.32,1.76-7.33,1.76-10.65,0-4.06-2.15-5.66-6.05-6.06-10.3h-.1c.1,4.93,1.53,9.65,6.16,12.1,3.32,1.76,7.33,1.76,10.65,0,4.71-2.49,6.13-7.32,6.19-12.33h-.09c-.37,4.34-1.97,8.34-6.11,10.53Z" style="opacity:.1;"></path><path d="M236.86,298.59c.28-.07,2,3.56,2.09,11.25,0,.66,.37,10.82,.07,11.7,0,0-1.65,2.45-2.17,2.87l3.11,.39v-26.2h-3.11Z" style="fill:#e0e0e0;"></path><path d="M243.11,298.69c-.39-.12-2.16,3.25-2.13,11.15,.03,7.27-.21,10.87,.26,11.91,0,0,1.65,2.39,2.17,2.81l-3.44,.23v-26.2l3.14,.1Z" style="fill:#e0e0e0;"></path><path d="M251.73,325.19c0,1.49-5.2,2.7-11.61,2.7s-11.61-1.21-11.61-2.7,5.2-2.7,11.61-2.7,11.61,1.21,11.61,2.7Z" style="fill:#e0e0e0;"></path><path d="M238.95,321.46c.14,.04-.02,.86-.68,1.61-.66,.75-1.46,1.01-1.51,.88-.07-.14,.54-.56,1.12-1.23,.59-.66,.94-1.31,1.08-1.26Z" style="fill:#263238;"></path><path d="M243.34,323.81c-.06,.13-.85-.15-1.55-.89-.7-.73-.94-1.54-.81-1.59,.14-.07,.56,.57,1.19,1.23,.63,.67,1.24,1.12,1.16,1.26Z" style="fill:#263238;"></path><g><path d="M249.52,292.02c0,.81-4.33,1.46-9.68,1.46s-9.68-.65-9.68-1.46,4.33-1.46,9.68-1.46,9.68,.65,9.68,1.46Z" style="fill:#FF725E;"></path><path d="M249.52,292.02c0,.81-4.33,1.46-9.68,1.46s-9.68-.65-9.68-1.46,4.33-1.46,9.68-1.46,9.68,.65,9.68,1.46Z" style="opacity:.3;"></path></g><path d="M231.6,266.29s-7.38,16.19,1.88,25.6c0,0-1.72-4.57-.75-13.35,.56-5.1,3.56-11.05,3.56-11.05-1.7-.26-3.26-.67-4.69-1.2Z" style="fill:#fff; opacity:.3;"></path><path d="M249.85,265.65s-.23,.18-.7,.41c-.46,.24-1.16,.53-2.05,.82-1.76,.6-4.32,1.15-7.18,1.15-2.86,0-5.42-.56-7.18-1.17-.88-.3-1.58-.59-2.04-.83-.47-.23-.72-.38-.7-.41,.04-.08,1.09,.38,2.86,.88,1.76,.51,4.27,.99,7.07,1,2.8,0,5.31-.47,7.07-.98,1.77-.5,2.82-.96,2.86-.87Z" style="fill:#263238;"></path><path d="M243.14,299.07c.05,.13-1.31,.69-3.08,.67-1.78,0-3.13-.59-3.07-.71,.04-.15,1.39,.18,3.08,.18,1.68,.02,3.04-.29,3.08-.14Z" style="fill:#263238;"></path><g style="opacity:.3;"><path d="M238.31,299.87c.28,1.13,.56,2.27,.83,3.4,.06,.26,.14,.54,.37,.68,.29,.18,.69,0,.89-.27,.2-.27,.26-.62,.32-.96,.19-.9,.6-2.01,1.03-2.81-1.07,.24-2.4,.27-3.45-.04Z" style="fill:#fff;"></path></g></g><path d="M206.66,301.38l4.73-2.99s5.13-4.76,7.9-6.76,20.05-2.33,20.05-2.33c0,0,11.52,1.66,11.97,3.21,.44,1.55-.44,3.43-1.33,3.43s-11.41,.11-11.41,.11c0,0,1,1.11,4.21,1.33,3.21,.22,4.65,0,4.76,1.99,.11,1.99-.66,1.99-2.77,3.43,0,0,.33,3.66-5.1,4.76,0,0,.66,2.22-3.43,3.21-4.1,1-7.64,1.88-10.3,1.77s-7.18-.17-7.18-.17l-5.12,3.05-6.98-14.07Z" style="fill:#ffbf9d;"></path><path d="M235.52,302.26c.02-.15,2.2,0,4.89,.09,2.69,.1,4.88,.1,4.89,.25,0,.14-2.19,.38-4.91,.28-2.72-.09-4.89-.48-4.88-.62Z" style="fill:#ff9a6c;"></path><path d="M231.55,306.85c.03-.15,1.82,.09,4.04,.23,2.22,.15,4.02,.15,4.03,.3,.01,.14-1.81,.38-4.07,.23-2.26-.15-4.03-.62-4-.76Z" style="fill:#ff9a6c;"></path><polygon points="204.25 301.18 207.85 298.84 216.18 315.91 212.4 318.32 204.25 301.18" style="fill:#e0e0e0;"></polygon></g><g><g><path d="M112.18,255.37c-9.32,6.25-12.18,18.17-7.14,27.88,9.65,18.58,29.14,51.23,33.32,55.7,6.17,6.6,8.15,10.18,20,9.48,11.85-.7,54.74-28.63,54.74-28.63l-9.42-19.82-37.27,16.26s-9.89-14.86-11.37-19.42c-1.48-4.56-6.67-12.29-9.26-20.01s-17.78-27.04-28.52-23.88c-1.79,.53-3.49,1.39-5.07,2.45Z" style="fill:#263238;"></path><path d="M112.18,255.37s.45-.35,1.39-.9c.95-.53,2.39-1.35,4.48-1.8,2.1-.42,4.83-.02,7.59,1.35,2.78,1.33,5.65,3.45,8.51,6.18,2.85,2.73,5.71,6.06,8.34,10.02,1.29,1.99,2.59,4.12,3.45,6.56,.83,2.41,1.88,4.83,3.08,7.28,1.2,2.45,2.54,4.93,3.87,7.51,.66,1.29,1.32,2.61,1.89,4.01,.26,.7,.53,1.4,.79,2.1,.31,.68,.63,1.37,.98,2.04,2.86,5.39,6.36,10.8,10.03,16.39l-.28-.08c11.42-4.99,24.01-10.49,37.26-16.28l.23-.1,.11,.22c3.01,6.33,6.19,13.01,9.43,19.82l.1,.21-.19,.12c-3.94,2.55-8.18,5.2-12.49,7.84-9.87,5.98-19.61,11.7-29.46,16.38-2.47,1.16-4.95,2.25-7.48,3.13-1.27,.43-2.55,.85-3.87,1.09-1.33,.26-2.66,.26-3.97,.3-2.62,.02-5.28-.21-7.73-1.11-2.46-.91-4.49-2.62-6.22-4.42-.88-.9-1.71-1.82-2.54-2.73l-1.25-1.35c-.39-.48-.81-.95-1.17-1.44-1.47-1.96-2.77-3.98-4.07-5.97-2.57-3.98-4.98-7.9-7.28-11.71-4.59-7.62-8.75-14.79-12.46-21.38-1.85-3.3-3.6-6.45-5.21-9.45-.81-1.5-1.59-2.96-2.33-4.38-.37-.72-.76-1.4-1.07-2.12-.33-.71-.66-1.41-.88-2.13-1.02-2.85-1.37-5.69-1.24-8.27,.12-2.59,.7-4.91,1.48-6.88,.36-1,.85-1.88,1.28-2.72,.24-.41,.49-.78,.73-1.16,.23-.38,.47-.73,.73-1.04,.5-.65,.96-1.25,1.45-1.73,.47-.51,.89-.96,1.33-1.32,.42-.36,.78-.7,1.11-.96,.34-.25,.63-.45,.86-.62,.46-.33,.71-.49,.71-.49,0,0-.22,.19-.68,.53-.23,.18-.51,.39-.85,.64-.33,.26-.68,.61-1.09,.98-.43,.36-.85,.82-1.3,1.33-.48,.49-.93,1.09-1.42,1.74-.26,.31-.49,.67-.71,1.04-.23,.37-.48,.75-.71,1.15-.42,.83-.9,1.71-1.25,2.7-.76,1.96-1.32,4.26-1.42,6.82-.11,2.55,.25,5.36,1.27,8.17,.23,.71,.55,1.4,.88,2.1,.31,.71,.71,1.39,1.08,2.1,.75,1.42,1.53,2.88,2.35,4.37,1.62,2.99,3.38,6.14,5.24,9.43,3.72,6.58,7.91,13.73,12.51,21.34,2.31,3.8,4.72,7.71,7.3,11.68,1.3,1.97,2.61,3.99,4.06,5.93,.36,.49,.76,.93,1.14,1.4l1.25,1.36c.84,.91,1.67,1.83,2.54,2.72,1.72,1.79,3.68,3.42,6.05,4.3,2.37,.87,4.97,1.09,7.56,1.07,1.3-.03,2.62-.04,3.88-.29,1.28-.24,2.54-.65,3.8-1.08,2.51-.88,4.97-1.97,7.43-3.12,9.81-4.67,19.55-10.38,29.41-16.36,4.3-2.63,8.54-5.28,12.48-7.83l-.09,.33c-3.24-6.81-6.41-13.5-9.42-19.82l.33,.12c-13.26,5.77-25.86,11.26-37.28,16.24l-.18,.08-.11-.16c-3.67-5.61-7.15-11.03-10.02-16.46-.36-.68-.68-1.37-.99-2.07-.27-.71-.53-1.41-.79-2.11-.55-1.37-1.21-2.69-1.86-3.98-1.32-2.58-2.66-5.07-3.85-7.53-1.2-2.46-2.25-4.9-3.08-7.33-.84-2.39-2.12-4.51-3.39-6.5-2.6-3.95-5.44-7.27-8.26-10-2.82-2.72-5.67-4.85-8.41-6.19-2.73-1.37-5.41-1.79-7.47-1.39-2.06,.42-3.52,1.22-4.47,1.72-.48,.26-.83,.48-1.07,.63-.24,.15-.36,.21-.36,.21Z" style="fill:#455a64;"></path></g><path d="M158.23,333.16s-.06-.28-.07-.8c-.02-.52,.02-1.26,.13-2.18,.1-.92,.34-2,.69-3.17,.37-1.17,.87-2.42,1.53-3.67,1.34-2.5,3.06-4.45,4.44-5.67,.69-.61,1.28-1.07,1.71-1.35,.43-.29,.67-.43,.7-.4,.05,.07-.86,.75-2.16,2.02-1.29,1.27-2.92,3.21-4.23,5.65-.65,1.22-1.15,2.44-1.54,3.57-.36,1.14-.63,2.19-.78,3.08-.32,1.79-.33,2.92-.42,2.92Z" style="fill:#455a64;"></path><path d="M149.21,290.61c.03,.06-.67,.44-1.83,.95-1.16,.51-2.79,1.17-4.63,1.79-1.84,.62-3.53,1.1-4.76,1.4-1.24,.3-2.01,.43-2.03,.36-.04-.15,2.97-1.01,6.63-2.25,3.65-1.23,6.57-2.38,6.63-2.25Z" style="fill:#455a64;"></path></g></g></g></svg>
